<svg width="800" height="600" xmlns="http://www.w3.org/2000/svg">
  <defs>
    <linearGradient id="sky" x1="0%" y1="0%" x2="0%" y2="100%">
      <stop offset="0%" style="stop-color:#1e3a5f;stop-opacity:1" />
      <stop offset="100%" style="stop-color:#2d5a87;stop-opacity:1" />
    </linearGradient>
    <linearGradient id="ground" x1="0%" y1="0%" x2="0%" y2="100%">
      <stop offset="0%" style="stop-color:#3a5f3a;stop-opacity:1" />
      <stop offset="100%" style="stop-color:#4a7c4a;stop-opacity:1" />
    </linearGradient>
  </defs>
  <rect width="800" height="400" fill="url(#sky)"/>
  <rect y="400" width="800" height="200" fill="url(#ground)"/>
  <rect x="100" y="200" width="200" height="250" fill="#8b7355" opacity="0.8"/>
  <rect x="120" y="220" width="160" height="180" fill="#d4af37" opacity="0.6"/>
  <polygon points="100,200 200,120 300,200" fill="#654321"/>
  <rect x="350" y="150" width="180" height="300" fill="#8b7355" opacity="0.8"/>
  <rect x="370" y="170" width="140" height="220" fill="#d4af37" opacity="0.6"/>
  <polygon points="350,150 440,80 530,150" fill="#654321"/>
  <rect x="550" y="220" width="200" height="230" fill="#8b7355" opacity="0.8"/>
  <rect x="570" y="240" width="160" height="170" fill="#d4af37" opacity="0.6"/>
  <polygon points="550,220 650,140 750,220" fill="#654321"/>
  <circle cx="650" cy="100" r="40" fill="#ffd700" opacity="0.7"/>
  <text x="400" y="550" font-family="Arial, sans-serif" font-size="24" fill="#ffffff" text-anchor="middle" font-weight="bold">Lovely Professional University</text>
  <text x="400" y="580" font-family="Arial, sans-serif" font-size="16" fill="#e0e0e0" text-anchor="middle">Campus View</text>
</svg>
